<svg width="211" height="50" viewBox="0 0 211 50" fill="none" xmlns="http://www.w3.org/2000/svg">
<path fill-rule="evenodd" clip-rule="evenodd" d="M132.31 13.5549C132.386 14.3494 132.733 15.0242 133.589 15.0242C134.412 15.0242 134.759 14.5344 134.759 13.7508C134.759 12.9563 134.391 12.4992 133.253 11.955C131.79 11.2476 131.194 10.6272 131.194 9.32115C131.194 7.97158 132.061 7.00293 133.6 7.00293C135.485 7.00293 135.962 8.30897 135.983 9.42999H134.64C134.597 8.95111 134.467 8.11306 133.567 8.11306C132.863 8.11306 132.56 8.57018 132.56 9.21232C132.56 9.91975 132.874 10.2463 133.936 10.7469C135.496 11.487 136.157 12.2053 136.157 13.6311C136.157 15.0133 135.323 16.1235 133.546 16.1235C131.606 16.1235 130.999 14.8718 130.945 13.5549H132.31ZM124.631 15.0243C123.775 15.0243 123.428 14.3496 123.353 13.5551H121.987C122.041 14.872 122.648 16.1236 124.588 16.1236C126.365 16.1236 127.199 15.0135 127.199 13.6312C127.199 12.2055 126.538 11.4872 124.978 10.7471C123.916 10.2464 123.602 9.9199 123.602 9.21247C123.602 8.57033 123.905 8.11321 124.609 8.11321C125.509 8.11321 125.639 8.95126 125.682 9.43014H127.026C127.004 8.30912 126.527 7.00308 124.642 7.00308C123.103 7.00308 122.237 7.97173 122.237 9.3213C122.237 10.6273 122.832 11.2477 124.295 11.9552C125.433 12.4993 125.801 12.9565 125.801 13.751C125.801 14.5346 125.455 15.0243 124.631 15.0243ZM129.805 7.16575H128.502V16.1234H129.805V7.16575ZM136.645 8.368H138.56V15.9605H139.942V8.368H141.857V7.16575H136.645V8.368ZM144.188 14.78H147.395L147.221 15.9605H142.834V7.16575H147.189V8.368H144.188V10.7508H147.048V11.9422H144.188V14.78ZM149.66 12.796C149.66 11.2534 149.615 9.34732 149.571 8.30061H149.615C149.915 10.0084 150.548 13.4901 151.026 16.1124H152.314C152.833 13.7521 153.338 11.132 153.68 9.35477L153.68 9.35458L153.68 9.35428L153.681 9.35307C153.755 8.9657 153.822 8.61841 153.88 8.32265H153.913C153.891 9.31427 153.857 11.0331 153.857 12.6087V16.1014H155.212V7.16575H153.158C152.603 9.64481 151.925 12.6968 151.748 13.8206H151.736C151.548 12.5646 151.026 9.74397 150.471 7.16575H148.372V16.1234H149.66V12.796ZM160.593 15.9605L160.077 13.5482H157.925L157.41 15.9605H156.027L158.123 7.16575H159.923L162.053 15.9605H160.593ZM159.001 8.44224H158.968C158.865 9.12911 158.624 10.262 158.328 11.6495L158.328 11.6534L158.325 11.6662L158.325 11.6663L158.325 11.6674C158.277 11.8914 158.228 12.1219 158.178 12.3582H159.824L159.704 11.8098L159.704 11.8093L159.704 11.8089L159.704 11.8087C159.361 10.2525 159.119 9.15119 159.001 8.44224ZM167.943 7.00293C166.155 7.00293 165.147 8.3509 165.147 11.4817C165.147 14.6776 166.014 16.1235 167.878 16.1235C169.861 16.1235 170.684 14.645 170.684 11.4925C170.695 8.43786 169.839 7.00293 167.943 7.00293ZM167.921 14.9494C166.935 14.9494 166.556 13.6993 166.556 11.4599C166.556 9.34013 166.924 8.17697 167.91 8.17697C168.918 8.17697 169.287 9.24229 169.287 11.4708C169.287 13.7754 168.951 14.9494 167.921 14.9494ZM173.256 13.1959V13.1962H173.267V16.1234H171.987V7.17676H173.612L173.778 7.60488C175.712 12.5853 176.052 13.4607 176.16 13.8675H176.171C176.105 12.745 176.093 11.4245 176.093 9.96089V7.16575H177.362V16.1014H175.804C173.645 10.4121 173.312 9.50971 173.2 9.11355H173.189C173.256 10.2249 173.256 11.5894 173.256 13.1959ZM183.388 14.7908H180.236V7.16575H178.828V15.9605H183.243L183.388 14.7908ZM184.202 7.16575H185.505V16.1234H184.202V7.16575ZM191.27 9.95331C191.27 11.4187 191.281 12.7409 191.346 13.8647H191.335C191.23 13.4574 190.901 12.5809 189.03 7.59389L188.869 7.16575H187.297V16.1234H188.535V13.2036C188.535 11.595 188.535 10.2288 188.471 9.11594H188.481C188.589 9.51259 188.912 10.4161 191.001 16.1124H192.509V7.16575H191.281V9.95331H191.27ZM198.361 11.9422H195.494V14.78H198.698L198.524 15.9605H194.137V7.16575H198.502V8.368H195.494V10.7508H198.361V11.9422ZM124.703 20.5208H122.476V29.4785H124.571C126.986 29.4785 127.851 27.8258 127.851 24.7958C127.851 21.9752 126.942 20.5208 124.703 20.5208ZM124.548 28.3216H123.883V21.6887H124.559C125.945 21.6887 126.399 22.6473 126.399 24.8068C126.41 27.2528 125.945 28.3216 124.548 28.3216ZM133.518 20.5208V21.7453H130.511V24.1723H133.377V25.3857H130.511V28.276H133.714L133.54 29.4785H129.154V20.5208H133.518ZM138.655 20.5208H137.297V29.4785H141.554L141.694 28.2871H138.655V20.5208ZM142.509 20.5208H143.974V29.4785H142.509V20.5208ZM145.277 24.9664C145.277 27.3039 145.532 29.6414 148.031 29.6414C150.4 29.6414 150.604 27.4298 150.651 26.9284L150.652 26.9162H149.259L149.256 26.9386C149.21 27.3465 149.084 28.456 148.064 28.456C146.914 28.456 146.726 26.75 146.726 24.9886C146.726 23.0389 146.958 21.5544 148.108 21.5544C149.149 21.5544 149.221 22.6575 149.245 23.0199L149.248 23.061H150.63C150.597 22.3963 150.431 20.358 148.131 20.358C146.074 20.358 145.277 22.1526 145.277 24.9664ZM155.853 25.3857H152.986V28.276H156.189L156.016 29.4785H151.629V20.5208H155.994V21.7453H152.986V24.1723H155.853V25.3857ZM161.314 23.3084C161.314 24.7738 161.324 26.0959 161.389 27.2198H161.378C161.274 26.8125 160.945 25.9361 159.074 20.9504L159.074 20.9503L158.912 20.5208H157.329V29.4785H158.568V26.5697V26.5694C158.568 24.9609 158.568 23.5948 158.503 22.482H158.514C158.622 22.8787 158.945 23.7821 161.034 29.4785H162.541V20.5208H161.314V23.3084ZM165.293 24.9886C165.293 26.75 165.481 28.456 166.631 28.456C167.647 28.456 167.776 27.3453 167.822 26.9432L167.825 26.9162H169.219L169.218 26.9284C169.171 27.4298 168.967 29.6414 166.598 29.6414C164.098 29.6414 163.844 27.3039 163.844 24.9664C163.844 22.1526 164.64 20.358 166.697 20.358C168.998 20.358 169.163 22.3963 169.197 23.061H167.814L167.811 23.0199C167.788 22.6574 167.716 21.5544 166.675 21.5544C165.525 21.5544 165.293 23.0389 165.293 24.9886ZM171.662 20.5208H170.196V29.4785H171.662V20.5208ZM172.476 29.4785L174.573 20.5208H176.373L178.502 29.4785H177.042L176.526 27.0214H174.375L173.859 29.4785H172.476ZM174.839 24.7892L174.838 24.7932L174.836 24.8008L174.835 24.8081C174.768 25.1249 174.699 25.4559 174.627 25.7984H176.274L176.153 25.2396C175.811 23.6541 175.569 22.5321 175.451 21.8099H175.418C175.33 22.4524 175.109 23.5027 174.839 24.7866L174.839 24.787L174.839 24.7877L174.839 24.7881L174.839 24.7889L174.839 24.789L174.839 24.7892ZM182.775 27.1785H182.764C182.58 25.924 182.07 23.1069 181.528 20.5318H179.479V29.4785H180.737V26.1661C180.737 24.6255 180.693 22.7217 180.65 21.6763H180.693C180.986 23.382 181.604 26.8594 182.07 29.4785H183.328C183.835 27.1211 184.327 24.5042 184.661 22.7292L184.661 22.7288C184.734 22.3414 184.8 21.994 184.856 21.6983H184.889C184.867 22.6887 184.834 24.4054 184.834 25.979V29.4675H186.157V20.5208H184.151C183.599 23.0078 182.948 26.0451 182.775 27.1785ZM192.009 25.3857H189.132V28.276H192.346L192.172 29.4785H187.785V20.5208H192.139V21.7453H189.132V24.1723H192.009V25.3857ZM197.421 23.3084C197.421 24.7738 197.432 26.0959 197.498 27.2198H197.487C197.379 26.8125 197.04 25.9359 195.11 20.9484L194.944 20.5208H193.323V29.4785H194.6V26.5697C194.6 24.9611 194.6 23.5948 194.533 22.482H194.544C194.656 22.8787 194.989 23.7821 197.143 29.4785H198.698V20.5208H197.432V23.3084H197.421ZM201.427 21.7453H199.512V20.5208H204.724V21.7453H202.809V29.4785H201.427V21.7453ZM207.927 20.358C206.087 20.358 205.049 21.73 205.049 24.9167C205.049 28.1698 205.942 29.6414 207.86 29.6414C209.902 29.6414 210.75 28.1366 210.75 24.9278C210.75 21.8185 209.868 20.358 207.927 20.358ZM207.905 28.4464C206.89 28.4464 206.5 27.1739 206.5 24.8946C206.5 22.7369 206.879 21.553 207.894 21.553C208.931 21.553 209.311 22.6373 209.311 24.9056C209.311 27.2514 208.954 28.4464 207.905 28.4464ZM123.588 38.4361C123.588 40.1666 123.776 41.8427 124.926 41.8427C125.966 41.8427 126.087 40.6999 126.12 40.319H127.525L127.524 40.331C127.477 40.8236 127.273 42.9964 124.904 42.9964C122.405 42.9964 122.15 40.6999 122.15 38.4035C122.15 35.639 122.947 33.8759 125.004 33.8759C127.315 33.8759 127.481 35.8785 127.492 36.5424H126.109L126.107 36.5019C126.083 36.1459 126.011 35.0622 124.97 35.0622C123.82 35.0622 123.588 36.5206 123.588 38.4361ZM132.375 38.0738C132.884 37.8899 133.437 37.3598 133.437 36.2348C133.437 34.8609 132.585 34.0388 131.102 34.0388H128.502V42.8336H131.058C132.641 42.8336 133.714 41.8924 133.714 40.2481C133.714 38.9067 133.028 38.3226 132.375 38.0738ZM129.874 35.1314H130.815C131.656 35.1314 132.098 35.5533 132.098 36.3538C132.098 37.1759 131.788 37.587 130.737 37.587H129.874V35.1314ZM130.914 41.741H129.874V38.6688H130.737C131.844 38.6688 132.309 39.2205 132.309 40.2157C132.309 41.265 131.811 41.741 130.914 41.741ZM138.219 40.5336H138.23C138.407 39.4001 139.085 36.3629 139.64 33.8759H141.694V42.8225H140.34V39.3341C140.34 37.7604 140.373 36.0437 140.395 35.0533H140.362C140.304 35.3491 140.237 35.6963 140.162 36.0837C139.82 37.8587 139.316 40.4759 138.796 42.8335H137.508C137.03 40.2145 136.397 36.737 136.098 35.0313H136.053C136.098 36.0768 136.142 37.9805 136.142 39.5212V42.8335H134.854V33.8869H136.953C137.508 36.4619 138.03 39.2791 138.219 40.5336ZM148.209 36.2778C148.209 34.7243 147.342 33.8759 145.761 33.8759H143.16V42.8335H144.543V38.9111H145.366C146.442 38.9111 146.705 39.3849 146.705 40.6079V40.9274C146.705 41.6876 146.727 42.4259 146.848 42.8335H148.198C148.121 42.3487 148.077 41.897 148.077 40.9494V40.5969C148.077 39.2967 147.77 38.6577 147.035 38.3492C147.528 38.1509 148.209 37.5889 148.209 36.2778ZM145.421 37.7762H144.543V35.0217H145.564C146.442 35.0217 146.826 35.5175 146.826 36.3329C146.815 37.2915 146.431 37.7762 145.421 37.7762ZM150.811 36.0853C150.811 36.7927 151.126 37.1192 152.177 37.6198C153.737 38.3599 154.398 39.0783 154.398 40.504C154.398 41.8862 153.564 42.9964 151.787 42.9964C149.847 42.9964 149.24 41.7448 149.186 40.4278H150.551C150.627 41.2223 150.974 41.8971 151.83 41.8971C152.653 41.8971 153 41.4074 153 40.6237C153 39.8292 152.632 39.3721 151.494 38.8279C150.031 38.1205 149.435 37.5001 149.435 36.1941C149.435 34.8445 150.302 33.8759 151.841 33.8759C153.726 33.8759 154.203 35.1819 154.235 36.3029H152.892C152.848 35.824 152.718 34.986 151.819 34.986C151.115 34.986 150.811 35.4431 150.811 36.0853Z" fill="#00194a"/>
<path fill-rule="evenodd" clip-rule="evenodd" d="M62.9112 33.0879V35.2258C62.9112 38.7053 64.1191 40.5706 66.7326 40.5706C69.39 40.5706 70.4442 38.6508 70.4442 34.6041C70.4442 30.2846 69.4888 28.6049 65.5686 25.5725C61.5935 22.4857 59.5729 20.6205 59.5729 15.1667C59.5729 10.4873 60.9895 5.99333 66.8204 6.02606C72.3549 6.05878 73.8154 9.71284 73.8154 14.4031V16.1156H69.8951V14.5122C69.8951 11.4472 69.2912 9.46196 66.7436 9.46196C64.196 9.46196 63.5371 11.6871 63.5371 14.5776C63.5371 18.0136 64.2289 19.3116 67.633 21.8749C72.7941 25.7471 74.4303 27.9177 74.4303 34.0478C74.4303 39.2398 72.9369 43.9737 66.6557 43.9737C60.6601 43.9846 58.958 40.0797 58.958 35.204V33.077H62.9112V33.0879ZM93.9745 15.6058V34.2306C93.9745 40.7225 91.3071 43.9739 85.8089 43.9739C80.0931 43.9739 78.0136 40.3297 78.0136 34.2742V15.6058C78.0136 9.33203 80.8661 6.02605 86.0811 6.02605C91.5248 6.02605 93.9745 9.75755 93.9745 15.6058ZM82.0092 15.4203V34.6015C82.0092 38.7586 83.5117 40.4061 85.994 40.4061C88.607 40.4061 89.9679 38.8022 89.9679 34.416V15.4203C89.9679 11.4924 88.6179 9.61571 85.9614 9.61571C83.3048 9.61571 82.0092 11.3942 82.0092 15.4203ZM102.664 6.5147H98.6975V43.4854H112.053V39.9389H102.664V6.5147Z" fill="#00194a"/>
<path d="M24.2672 13.8438C18.5205 13.8438 13.8438 18.5192 13.8438 24.2643C13.8438 29.4664 17.6785 33.7726 22.6648 34.5491C23.1374 35.4994 24.1043 36.1565 25.2395 36.1565C26.831 36.1565 28.1183 34.8695 28.1183 33.2785C28.1183 31.6874 26.831 30.4004 25.2395 30.4004C24.1857 30.4004 23.2678 30.976 22.7681 31.8232C19.232 31.1227 16.5596 28.0057 16.5596 24.2697C16.5596 20.0233 20.0142 16.5643 24.2672 16.5643C28.5202 16.5643 31.9748 20.0179 31.9748 24.2697C31.9748 25.8391 31.5077 27.3487 30.6169 28.6356C30.1932 29.2547 30.3453 30.0963 30.9645 30.5253C31.5837 30.9489 32.4256 30.7968 32.8547 30.1778C34.0551 28.4347 34.6907 26.393 34.6907 24.2697C34.6907 18.5137 30.014 13.8438 24.2672 13.8438Z" fill="#FCD733"/>
<path d="M24.2268 6.51465C18.3844 6.51465 13.0633 9.34419 9.78916 14.0347C9.76744 14.0347 9.74572 14.0292 9.71857 14.0292C8.12766 14.0292 6.84082 15.3189 6.84082 16.9132C6.84082 18.5075 8.12766 19.7972 9.71857 19.7972C11.3095 19.7972 12.5963 18.5075 12.5963 16.9132C12.5963 16.3527 12.4334 15.8358 12.1565 15.395C14.942 11.548 19.3726 9.23536 24.2268 9.23536C32.4528 9.23536 39.1422 15.9392 39.1422 24.1829C39.1422 32.4267 32.4528 39.136 24.2268 39.136C21.2513 39.136 18.379 38.2599 15.9247 36.6057C15.3003 36.1867 14.4587 36.3554 14.0406 36.9757C13.6225 37.6015 13.7909 38.4449 14.4099 38.8639C17.3148 40.8228 20.7138 41.8567 24.2268 41.8567C33.9514 41.8567 41.8571 33.9285 41.8571 24.1884C41.8571 14.4482 33.9514 6.51465 24.2268 6.51465Z" fill="#FF8400"/>
<path d="M24.2671 0C10.8866 0 0 10.8719 0 24.2343C0 37.0627 10.0353 47.5913 22.6791 48.4142C23.1593 49.3515 24.1198 50 25.2494 50C26.8482 50 28.1415 48.7084 28.1415 47.1117C28.1415 45.515 26.8482 44.2234 25.2494 44.2234C24.1743 44.2234 23.2412 44.8174 22.7446 45.6894C11.5742 44.9046 2.72848 35.5858 2.72848 24.2343C2.72848 12.376 12.3928 2.7248 24.2671 2.7248C36.1414 2.7248 45.8057 12.376 45.8057 24.2343C45.8057 24.9864 46.4169 25.5967 47.17 25.5967C47.923 25.5967 48.5342 24.9864 48.5342 24.2343C48.5397 10.8719 37.653 0 24.2671 0Z" fill="#D80100"/>
<path d="M48.8603 30.888C48.8603 29.2987 47.5621 28.0132 45.9571 28.0132C44.3522 28.0132 43.054 29.2987 43.054 30.888C43.054 31.6962 43.3936 32.4285 43.9413 32.9492C41.6845 38.0099 37.5434 42.0184 32.2903 44.1284C31.5892 44.4104 31.2496 45.2024 31.5344 45.8967C31.748 46.4228 32.2629 46.7428 32.8052 46.7428C32.975 46.7428 33.1503 46.7103 33.3201 46.6452C39.3565 44.2206 44.0892 39.5612 46.5925 33.6923C47.8908 33.4048 48.8603 32.2603 48.8603 30.888Z" fill="#D80100"/>
</svg>
