<svg xmlns="http://www.w3.org/2000/svg" xmlns:xlink="http://www.w3.org/1999/xlink" version="1.1" x="0px" y="0px" viewBox="0 0 64 64" style="enable-background:new 0 0 64 64;" xml:space="preserve">
	<g>
		<path style="fill:#176ca8" d="M63.601,48L51,37.919V44h-9.012c1.635-2.176,2.818-4.657,3.455-7.306L49,35.774v-7.553l-3.552-0.899   c-0.487-2.028-1.29-3.959-2.395-5.758l1.882-3.157l-5.344-5.343l-3.157,1.881c-1.798-1.104-3.729-1.908-5.757-2.395L29.778,9   h-7.557l-0.899,3.552c-2.028,0.487-3.959,1.29-5.757,2.395l-3.157-1.881l-5.344,5.343l1.882,3.157   c-1.104,1.798-1.908,3.73-2.395,5.758L3,28.222v7.555l3.554,0.907c0.65,2.708,1.856,5.18,3.469,7.316H1v8h25h25v6.081L63.601,48z    M3,50v-4h8.762c1.617,1.638,3.504,2.994,5.585,4H3z M26,50c-8.495,0-15.907-6.029-17.625-14.335l-0.127-0.612L5,34.223v-4.445   l3.246-0.821l0.127-0.614c0.456-2.208,1.325-4.298,2.583-6.212l0.344-0.523l-1.72-2.886l3.142-3.142l2.886,1.721l0.523-0.344   c1.914-1.258,4.004-2.127,6.212-2.583l0.614-0.127L23.778,11h4.443l0.821,3.246l0.614,0.127c2.208,0.456,4.298,1.325,6.212,2.583   l0.523,0.344l2.886-1.721l3.142,3.142l-1.72,2.886l0.344,0.523c1.258,1.914,2.127,4.004,2.583,6.212l0.127,0.614L47,29.778v4.447   l-3.251,0.841l-0.126,0.609c-0.643,3.096-2.103,5.961-4.22,8.324h-6.228C37.255,41.551,40,37.096,40,32c0-7.72-6.28-14-14-14   s-14,6.28-14,14s6.28,14,14,14h27v-3.919L60.399,48L53,53.919V50H26z M26,44c-6.617,0-12-5.383-12-12s5.383-12,12-12   s12,5.383,12,12S32.617,44,26,44z" />
		<path style="fill:#176ca8" d="M18.571,29.023l-1.857-0.742c-0.275,0.688-0.473,1.407-0.59,2.137l1.976,0.314C18.192,30.149,18.351,29.574,18.571,29.023z   " />
		<path style="fill:#176ca8" d="M18.016,32.507L16.02,32.63c0.046,0.741,0.174,1.476,0.383,2.186l1.919-0.562C18.156,33.687,18.053,33.099,18.016,32.507z" />
		<path style="fill:#176ca8" d="M17.26,36.862c0.361,0.647,0.794,1.254,1.287,1.805l1.49-1.334c-0.395-0.441-0.742-0.927-1.03-1.445L17.26,36.862z" />
		<path style="fill:#176ca8" d="M29,32c0-1.302-0.839-2.402-2-2.816V22h-2v7.184c-1.161,0.414-2,1.514-2,2.816c0,1.654,1.346,3,3,3   c0.462,0,0.894-0.113,1.285-0.301l3.008,3.008l1.414-1.414l-3.008-3.008C28.887,32.894,29,32.462,29,32z M26,33   c-0.551,0-1-0.449-1-1s0.449-1,1-1s1,0.449,1,1S26.551,33,26,33z" />
	</g>
</svg>
